0
SECTION
2
HEADER
9
$INSUNITS
70
4
9
$ACADVER
1
AC1014
9
$HANDSEED
5
FFFF
0
ENDSEC
0
SECTION
2
TABLES
0
TABLE
2
VPORT
5
8
100
AcDbSymbolTable
0
ENDTAB
0
TABLE
2
LTYPE
5
5
100
AcDbSymbolTable
0
LTYPE
5
14
100
AcDbSymbolTableRecord
100
AcDbLinetypeTableRecord
2
BYBLOCK
70
0
0
LTYPE
5
15
100
AcDbSymbolTableRecord
100
AcDbLinetypeTableRecord
2
BYLAYER
70
0
0
LTYPE
5
16
100
AcDbSymbolTableRecord
100
AcDbLinetypeTableRecord
2
DASHED
70
0
3
Dashed __ __ __ __ __ __ __ __ __ __ __ __ __ _
72
65
73
2
40
0.75
49
0.5
74
0
49
-0.25
74
0
0
ENDTAB
0
TABLE
2
LAYER
5
2
100
AcDbSymbolTable
70
2
0
LAYER
5
50
100
AcDbSymbolTableRecord
100
AcDbLayerTableRecord
2
0
70
0
62
7
6
CONTINUOUS
0
ENDTAB
0
TABLE
2
STYLE
5
3
100
AcDbSymbolTable
70
1
0
STYLE
5
11
100
AcDbSymbolTableRecord
100
AcDbTextStyleTableRecord
2
STANDARD
70
0
0
ENDTAB
0
TABLE
2
VIEW
5
6
100
AcDbSymbolTable
70
0
0
ENDTAB
0
TABLE
2
UCS
5
7
100
AcDbSymbolTable
70
0
0
ENDTAB
0
TABLE
2
APPID
5
9
100
AcDbSymbolTable
70
2
0
APPID
5
12
100
AcDbSymbolTableRecord
100
AcDbRegAppTableRecord
2
ACAD
70
0
0
ENDTAB
0
TABLE
2
DIMSTYLE
5
A
100
AcDbSymbolTable
70
1
0
ENDTAB
0
TABLE
2
BLOCK_RECORD
5
1
100
AcDbSymbolTable
70
1
0
BLOCK_RECORD
5
1F
100
AcDbSymbolTableRecord
100
AcDbBlockTableRecord
2
*MODEL_SPACE
0
BLOCK_RECORD
5
1B
100
AcDbSymbolTableRecord
100
AcDbBlockTableRecord
2
*PAPER_SPACE
0
ENDTAB
0
ENDSEC
0
SECTION
2
BLOCKS
0
BLOCK
5
20
100
AcDbEntity
100
AcDbBlockBegin
2
*MODEL_SPACE
0
ENDBLK
5
21
100
AcDbEntity
100
AcDbBlockEnd
0
BLOCK
5
1C
100
AcDbEntity
100
AcDbBlockBegin
2
*PAPER_SPACE
0
ENDBLK
5
1D
100
AcDbEntity
100
AcDbBlockEnd
0
ENDSEC
0
SECTION
2
ENTITIES
0
LWPOLYLINE
5
100
100
AcDbEntity
8
OUTER_PROFILES
100
AcDbPolyline
90
12
70
1
43
0.0
10
443.15999999999377
20
123.53044737830486
10
443.15999999999377
20
25.999999999999996
42
-0.4142135623730942
10
417.15999999999377
20
-4.4408920985006262e-15
10
0
20
-4.4408920985006262e-15
42
-0.41421356237309509
10
-26
20
25.999999999999996
10
-25.999999999999979
20
262.59999999999997
42
-0.41421356237309509
10
3.9708255677164266e-14
20
288.59999999999997
10
377.16000000000008
20
288.60000000000002
42
-0.41421356237309337
10
403.15999999999997
20
262.60000000000002
10
403.16000000000003
20
185.06955262170337
42
0.19891236737963852
10
410.7752236891485
20
166.68477631085452
10
435.54477631084535
20
141.91522368915366
42
-0.19891236737963749
0
LWPOLYLINE
5
101
100
AcDbEntity
8
INTERIOR_PROFILES
100
AcDbPolyline
90
8
70
1
43
0.0
10
383.25967491177937
20
25.999824970653691
10
383.25967491177937
20
262.59982497065374
42
0.41421356237309509
10
377.15967491177935
20
268.69982497065376
10
-0.0003250882207329648
20
268.69982497065382
42
0.4142135623730917
10
-6.1003250882207123
20
262.59982497065386
10
-6.1003250882207478
20
25.999824970653798
42
0.4142135623730942
10
-0.00032508822076783713
20
19.899824970653835
10
377.15967491177923
20
19.899824970653608
42
0.41421356237309248
0
CIRCLE
5
102
100
AcDbEntity
8
INTERIOR_PROFILES
100
AcDbCircle
10
-393.15967491177929
20
59.999999999999986
30
0
40
2.2499999999999964
210
0
220
0
230
-1
0
CIRCLE
5
103
100
AcDbEntity
8
INTERIOR_PROFILES
100
AcDbCircle
10
15.999999999999979
20
228.59999999999991
30
0
40
2.2500000000000142
210
0
220
0
230
-1
0
CIRCLE
5
104
100
AcDbEntity
8
INTERIOR_PROFILES
100
AcDbCircle
10
-413.15999999999377
20
119.99999999999999
30
0
40
11.20000000000001
210
0
220
0
230
-1
0
CIRCLE
5
105
100
AcDbEntity
8
INTERIOR_PROFILES
100
AcDbCircle
10
-34
20
9.9999999999999822
30
0
40
2.2499999999999964
210
0
220
0
230
-1
0
CIRCLE
5
106
100
AcDbEntity
8
INTERIOR_PROFILES
100
AcDbCircle
10
-413.15999999999377
20
39.999999999999986
30
0
40
11.199999999999992
210
0
220
0
230
-1
0
CIRCLE
5
107
100
AcDbEntity
8
INTERIOR_PROFILES
100
AcDbCircle
10
-413.15999999999377
20
79.999999999999986
30
0
40
11.20000000000001
210
0
220
0
230
-1
0
CIRCLE
5
108
100
AcDbEntity
8
INTERIOR_PROFILES
100
AcDbCircle
10
-343.16000000000003
20
9.9999999999999822
30
0
40
2.2500000000000142
210
0
220
0
230
-1
0
SPLINE
5
109
100
AcDbEntity
8
INTERIOR_PROFILES
100
AcDbSpline
70
0
71
2
72
6
73
3
74
0
42
0.000000001
43
0.0000000001
44
0.0000000001
40
0
40
0
40
0
40
1
40
1
40
1
10
-18.485360860824578
20
148.76862244680521
30
0
10
-17.687270760536187
20
149.33478908613321
30
0
10
-17.257530212402337
20
149.57353429868814
30
0
0
LINE
5
110
100
AcDbEntity
8
INTERIOR_PROFILES
100
AcDbLine
10
-18.485360860824578
20
148.76862244680521
30
0
11
-21.050163030624383
21
146.95416169241068
31
0
0
LINE
5
111
100
AcDbEntity
8
INTERIOR_PROFILES
100
AcDbLine
10
-21.050163030624383
20
146.95416169241068
30
0
11
-21.050163030624383
21
145.37844495847818
31
0
0
LINE
5
112
100
AcDbEntity
8
INTERIOR_PROFILES
100
AcDbLine
10
-21.050163030624383
20
145.37844495847818
30
0
11
-16.261623024940484
21
148.78908710554239
31
0
0
LINE
5
113
100
AcDbEntity
8
INTERIOR_PROFILES
100
AcDbLine
10
-16.261623024940484
20
148.78908710554239
30
0
11
-11.050163030624383
21
144.9214191921055
31
0
0
LINE
5
114
100
AcDbEntity
8
INTERIOR_PROFILES
100
AcDbLine
10
-11.050163030624383
20
144.9214191921055
30
0
11
-11.050163030624383
21
146.51077823713419
31
0
0
LINE
5
115
100
AcDbEntity
8
INTERIOR_PROFILES
100
AcDbLine
10
-11.050163030624383
20
146.51077823713419
30
0
11
-14.53583788871768
21
149.02100997045633
31
0
0
SPLINE
5
116
100
AcDbEntity
8
INTERIOR_PROFILES
100
AcDbSpline
70
0
71
2
72
6
73
3
74
0
42
0.000000001
43
0.0000000001
44
0.0000000001
40
0
40
0
40
0
40
1
40
1
40
1
10
-15.286179304122918
20
149.4985003955662
30
0
10
-14.74047672748565
20
149.16425662115213
30
0
10
-14.535837888717644
20
149.02100997045633
30
0
0
SPLINE
5
117
100
AcDbEntity
8
INTERIOR_PROFILES
100
AcDbSpline
70
0
71
2
72
6
73
3
74
0
42
0.000000001
43
0.0000000001
44
0.0000000001
40
0
40
0
40
0
40
1
40
1
40
1
10
-14.617694139480584
20
149.93506150320169
30
0
10
-14.92465150356292
20
149.72360329702494
30
0
10
-15.286179304122918
20
149.4985003955662
30
0
0
LINE
5
118
100
AcDbEntity
8
INTERIOR_PROFILES
100
AcDbLine
10
-14.617694139480584
20
149.93506150320169
30
0
11
-11.050163030624383
21
152.45211558416483
31
0
0
LINE
5
119
100
AcDbEntity
8
INTERIOR_PROFILES
100
AcDbLine
10
-11.050163030624383
20
152.45211558416483
30
0
11
-11.050163030624383
21
154.08922391012308
31
0
0
LINE
5
120
100
AcDbEntity
8
INTERIOR_PROFILES
100
AcDbLine
10
-11.050163030624383
20
154.08922391012308
30
0
11
-16.336656928062432
21
150.30341105535624
31
0
0
LINE
5
121
100
AcDbEntity
8
INTERIOR_PROFILES
100
AcDbLine
10
-16.336656928062432
20
150.30341105535624
30
0
11
-21.050163030624383
21
153.81637291982767
31
0
0
LINE
5
122
100
AcDbEntity
8
INTERIOR_PROFILES
100
AcDbLine
10
-21.050163030624383
20
153.81637291982767
30
0
11
-21.050163030624383
21
152.37708287313578
31
0
0
LINE
5
123
100
AcDbEntity
8
INTERIOR_PROFILES
100
AcDbLine
10
-21.050163030624383
20
152.37708287313578
30
0
11
-18.39668405055999
21
150.3648014552891
31
0
0
SPLINE
5
124
100
AcDbEntity
8
INTERIOR_PROFILES
100
AcDbSpline
70
0
71
2
72
6
73
3
74
0
42
0.000000001
43
0.0000000001
44
0.0000000001
40
0
40
0
40
0
40
1
40
1
40
1
10
-17.257530212402337
20
149.57353429868814
30
0
10
-17.803232789039605
20
149.90777688100931
30
0
10
-18.39668405055999
20
150.3648014552891
30
0
0
CIRCLE
5
125
100
AcDbEntity
8
INTERIOR_PROFILES
100
AcDbCircle
10
-343.16000000000003
20
278.0781191389878
30
0
40
2.2500000000000142
210
0
220
0
230
-1
0
CIRCLE
5
126
100
AcDbEntity
8
INTERIOR_PROFILES
100
AcDbCircle
10
-34.000000000000043
20
278.59999999999991
30
0
40
2.2500000000000142
210
0
220
0
230
-1
0
CIRCLE
5
127
100
AcDbEntity
8
INTERIOR_PROFILES
100
AcDbCircle
10
15.999999999999979
20
59.999999999999986
30
0
40
2.2499999999999964
210
0
220
0
230
-1
0
CIRCLE
5
128
100
AcDbEntity
8
INTERIOR_PROFILES
100
AcDbCircle
10
-393.16000000000003
20
228.59999999999999
30
0
40
2.2500000000000142
210
0
220
0
230
-1
0
LINE
5
129
100
AcDbEntity
8
INTERIOR_PROFILES
100
AcDbLine
10
-18.68317794799804
20
139.63356154039499
30
0
11
-12.277993679046624
21
134.51077805832026
31
0
0
LINE
5
130
100
AcDbEntity
8
INTERIOR_PROFILES
100
AcDbLine
10
-12.277993679046624
20
134.51077805832026
30
0
11
-11.050163030624383
21
134.51077805832026
31
0
0
LINE
5
131
100
AcDbEntity
8
INTERIOR_PROFILES
100
AcDbLine
10
-11.050163030624383
20
134.51077805832026
30
0
11
-11.050163030624383
21
142.4166436679661
31
0
0
LINE
5
132
100
AcDbEntity
8
INTERIOR_PROFILES
100
AcDbLine
10
-11.050163030624383
20
142.4166436679661
30
0
11
-12.230244398117058
21
142.4166436679661
31
0
0
LINE
5
133
100
AcDbEntity
8
INTERIOR_PROFILES
100
AcDbLine
10
-12.230244398117058
20
142.4166436679661
30
0
11
-12.230244398117058
21
136.03192405775187
31
0
0
LINE
5
134
100
AcDbEntity
8
INTERIOR_PROFILES
100
AcDbLine
10
-12.230244398117058
20
136.03192405775187
30
0
11
-12.932836532592766
21
136.63901822641489
31
0
0
LINE
5
135
100
AcDbEntity
8
INTERIOR_PROFILES
100
AcDbLine
10
-12.932836532592766
20
136.63901822641489
30
0
11
-19.870081067085259
21
142.25293355062601
31
0
0
LINE
5
136
100
AcDbEntity
8
INTERIOR_PROFILES
100
AcDbLine
10
-19.870081067085259
20
142.25293355062601
30
0
11
-21.050163030624383
21
142.25293355062601
31
0
0
LINE
5
137
100
AcDbEntity
8
INTERIOR_PROFILES
100
AcDbLine
10
-21.050163030624383
20
142.25293355062601
30
0
11
-21.050163030624383
21
135.09058730676767
31
0
0
LINE
5
138
100
AcDbEntity
8
INTERIOR_PROFILES
100
AcDbLine
10
-21.050163030624383
20
135.09058730676767
30
0
11
-19.870081067085259
21
135.09058730676767
31
0
0
LINE
5
139
100
AcDbEntity
8
INTERIOR_PROFILES
100
AcDbLine
10
-19.870081067085259
20
135.09058730676767
30
0
11
-19.870081067085259
21
140.67039685323832
31
0
0
SPLINE
5
140
100
AcDbEntity
8
INTERIOR_PROFILES
100
AcDbSpline
70
0
71
2
72
6
73
3
74
0
42
0.000000001
43
0.0000000001
44
0.0000000001
40
0
40
0
40
0
40
1
40
1
40
1
10
-18.68317794799804
20
139.63356154039499
30
0
10
-19.365306615829461
20
140.17926411703226
30
0
10
-19.870081067085259
20
140.67039685323832
30
0
0
ENDSEC
0
SECTION
2
OBJECTS
0
DICTIONARY
5
C
100
AcDbDictionary
3
ACAD_GROUP
350
D
3
ACAD_MLINESTYLE
350
17
0
DICTIONARY
5
D
100
AcDbDictionary
0
DICTIONARY
5
1A
330
C
100
AcDbDictionary
0
DICTIONARY
5
17
100
AcDbDictionary
0
ENDSEC
0
EOF
