0
SECTION
2
HEADER
9
$INSUNITS
70
4
9
$ACADVER
1
AC1014
9
$HANDSEED
5
FFFF
0
ENDSEC
0
SECTION
2
TABLES
0
TABLE
2
VPORT
5
8
100
AcDbSymbolTable
0
ENDTAB
0
TABLE
2
LTYPE
5
5
100
AcDbSymbolTable
0
LTYPE
5
14
100
AcDbSymbolTableRecord
100
AcDbLinetypeTableRecord
2
BYBLOCK
70
0
0
LTYPE
5
15
100
AcDbSymbolTableRecord
100
AcDbLinetypeTableRecord
2
BYLAYER
70
0
0
LTYPE
5
16
100
AcDbSymbolTableRecord
100
AcDbLinetypeTableRecord
2
DASHED
70
0
3
Dashed __ __ __ __ __ __ __ __ __ __ __ __ __ _
72
65
73
2
40
0.75
49
0.5
74
0
49
-0.25
74
0
0
ENDTAB
0
TABLE
2
LAYER
5
2
100
AcDbSymbolTable
70
2
0
LAYER
5
50
100
AcDbSymbolTableRecord
100
AcDbLayerTableRecord
2
0
70
0
62
7
6
CONTINUOUS
0
ENDTAB
0
TABLE
2
STYLE
5
3
100
AcDbSymbolTable
70
1
0
STYLE
5
11
100
AcDbSymbolTableRecord
100
AcDbTextStyleTableRecord
2
STANDARD
70
0
0
ENDTAB
0
TABLE
2
VIEW
5
6
100
AcDbSymbolTable
70
0
0
ENDTAB
0
TABLE
2
UCS
5
7
100
AcDbSymbolTable
70
0
0
ENDTAB
0
TABLE
2
APPID
5
9
100
AcDbSymbolTable
70
2
0
APPID
5
12
100
AcDbSymbolTableRecord
100
AcDbRegAppTableRecord
2
ACAD
70
0
0
ENDTAB
0
TABLE
2
DIMSTYLE
5
A
100
AcDbSymbolTable
70
1
0
ENDTAB
0
TABLE
2
BLOCK_RECORD
5
1
100
AcDbSymbolTable
70
1
0
BLOCK_RECORD
5
1F
100
AcDbSymbolTableRecord
100
AcDbBlockTableRecord
2
*MODEL_SPACE
0
BLOCK_RECORD
5
1B
100
AcDbSymbolTableRecord
100
AcDbBlockTableRecord
2
*PAPER_SPACE
0
ENDTAB
0
ENDSEC
0
SECTION
2
BLOCKS
0
BLOCK
5
20
100
AcDbEntity
100
AcDbBlockBegin
2
*MODEL_SPACE
0
ENDBLK
5
21
100
AcDbEntity
100
AcDbBlockEnd
0
BLOCK
5
1C
100
AcDbEntity
100
AcDbBlockBegin
2
*PAPER_SPACE
0
ENDBLK
5
1D
100
AcDbEntity
100
AcDbBlockEnd
0
ENDSEC
0
SECTION
2
ENTITIES
0
LWPOLYLINE
5
100
100
AcDbEntity
8
OUTER_PROFILES
100
AcDbPolyline
90
12
70
1
43
0.0
10
443.15999999999377
20
26.000000000000043
42
-0.41421356237309448
10
417.15999999999383
20
1.3322676295501878e-14
10
0
20
1.3322676295501878e-14
42
-0.41421356237309509
10
-26
20
26.000000000000014
10
-26.000000000000014
20
262.59999999999997
42
-0.41421356237309509
10
4.1811188891592555e-15
20
288.59999999999997
10
377.16000000000008
20
288.60000000000002
42
-0.4142135623730942
10
403.16000000000003
20
262.60000000000002
10
403.16000000000003
20
185.06955262170339
42
0.19891236737963852
10
410.77522368914845
20
166.68477631085455
10
435.54477631084535
20
141.91522368915369
42
-0.19891236737963813
10
443.15999999999377
20
123.53044737830487
0
LWPOLYLINE
5
101
100
AcDbEntity
8
INTERIOR_PROFILES
100
AcDbPolyline
90
4
70
1
43
0.0
10
283.32967491177925
20
172.05000000000413
10
296.82967491177925
20
172.05000000000413
10
296.82967491177925
20
188.05000000000416
10
283.32967491177925
20
188.05000000000416
0
CIRCLE
5
102
100
AcDbEntity
8
INTERIOR_PROFILES
100
AcDbCircle
10
-288.57967491177925
20
166.30000000000416
30
0
40
1.7500000000000071
210
0
220
0
230
-1
0
CIRCLE
5
103
100
AcDbEntity
8
INTERIOR_PROFILES
100
AcDbCircle
10
-288.57967491177925
20
193.80000000000416
30
0
40
1.7500000000000071
210
0
220
0
230
-1
0
CIRCLE
5
104
100
AcDbEntity
8
INTERIOR_PROFILES
100
AcDbCircle
10
-216.50000000000023
20
187.10000000000005
30
0
40
1.5000000000000213
210
0
220
0
230
-1
0
CIRCLE
5
105
100
AcDbEntity
8
INTERIOR_PROFILES
100
AcDbCircle
10
-216.49999999999983
20
245.10000000000008
30
0
40
1.5000000000000213
210
0
220
0
230
-1
0
CIRCLE
5
106
100
AcDbEntity
8
INTERIOR_PROFILES
100
AcDbCircle
10
-48.746525513593184
20
147.04141948730435
30
0
40
1.7500000000000071
210
0
220
0
230
-1
0
CIRCLE
5
107
100
AcDbEntity
8
INTERIOR_PROFILES
100
AcDbCircle
10
-167.49999999999966
20
187.10000000000002
30
0
40
1.4999999999999858
210
0
220
0
230
-1
0
CIRCLE
5
108
100
AcDbEntity
8
INTERIOR_PROFILES
100
AcDbCircle
10
-167.4999999999996
20
245.10000000000016
30
0
40
1.5000000000000213
210
0
220
0
230
-1
0
CIRCLE
5
109
100
AcDbEntity
8
INTERIOR_PROFILES
100
AcDbCircle
10
-103.74652551359318
20
147.04141948730435
30
0
40
1.7500000000000071
210
0
220
0
230
-1
0
CIRCLE
5
110
100
AcDbEntity
8
INTERIOR_PROFILES
100
AcDbCircle
10
-393.16000000000003
20
228.59999999999999
30
0
40
2.2500000000000142
210
0
220
0
230
-1
0
CIRCLE
5
111
100
AcDbEntity
8
INTERIOR_PROFILES
100
AcDbCircle
10
16.000000000000014
20
228.59999999999991
30
0
40
2.2500000000000142
210
0
220
0
230
-1
0
CIRCLE
5
112
100
AcDbEntity
8
INTERIOR_PROFILES
100
AcDbCircle
10
16.000000000000014
20
60
30
0
40
2.2499999999999964
210
0
220
0
230
-1
0
CIRCLE
5
113
100
AcDbEntity
8
INTERIOR_PROFILES
100
AcDbCircle
10
-343.16000000000003
20
10
30
0
40
2.2499999999999964
210
0
220
0
230
-1
0
CIRCLE
5
114
100
AcDbEntity
8
INTERIOR_PROFILES
100
AcDbCircle
10
-343.16000000000003
20
278.60000000000002
30
0
40
2.2500000000000142
210
0
220
0
230
-1
0
CIRCLE
5
115
100
AcDbEntity
8
INTERIOR_PROFILES
100
AcDbCircle
10
-34.000000000000021
20
278.59999999999997
30
0
40
2.2499999999999787
210
0
220
0
230
-1
0
CIRCLE
5
116
100
AcDbEntity
8
INTERIOR_PROFILES
100
AcDbCircle
10
-33.999999999999986
20
10
30
0
40
2.2499999999999964
210
0
220
0
230
-1
0
CIRCLE
5
117
100
AcDbEntity
8
INTERIOR_PROFILES
100
AcDbCircle
10
-393.16000000000003
20
60
30
0
40
2.2499999999999964
210
0
220
0
230
-1
0
CIRCLE
5
118
100
AcDbEntity
8
INTERIOR_PROFILES
100
AcDbCircle
10
-288.57967491177925
20
146.30000000000416
30
0
40
2.2499999999999964
210
0
220
0
230
-1
0
CIRCLE
5
119
100
AcDbEntity
8
INTERIOR_PROFILES
100
AcDbCircle
10
-288.57967491177925
20
95.300000000004133
30
0
40
2.2499999999999964
210
0
220
0
230
-1
0
LWPOLYLINE
5
120
100
AcDbEntity
8
INTERIOR_PROFILES
100
AcDbPolyline
90
4
70
1
43
0.0
10
274.57967491177925
20
99.300000000004161
10
302.57967491177925
20
99.300000000004161
10
302.57967491177925
20
142.30000000000413
10
274.57967491177925
20
142.30000000000413
0
LWPOLYLINE
5
121
100
AcDbEntity
8
INTERIOR_PROFILES
100
AcDbPolyline
90
4
70
1
43
0.0
10
323.16000000000003
20
222.30000000000416
10
353.16000000000003
20
222.30000000000416
42
0.99999999999999989
10
353.16000000000003
20
226.30000000000416
10
323.16000000000003
20
226.30000000000416
42
0.99999999999999989
0
LWPOLYLINE
5
122
100
AcDbEntity
8
INTERIOR_PROFILES
100
AcDbPolyline
90
4
70
1
43
0.0
10
323.16000000000003
20
182.30000000000416
10
353.16000000000003
20
182.30000000000416
42
0.99999999999999989
10
353.16000000000003
20
186.30000000000416
10
323.16000000000003
20
186.30000000000416
42
0.99999999999999989
0
LWPOLYLINE
5
123
100
AcDbEntity
8
INTERIOR_PROFILES
100
AcDbPolyline
90
4
70
1
43
0.0
10
323.16000000000003
20
142.30000000000413
10
353.16000000000003
20
142.30000000000416
42
0.99999999999999989
10
353.16000000000003
20
146.30000000000416
10
323.16000000000003
20
146.30000000000416
42
0.99999999999999989
0
LWPOLYLINE
5
124
100
AcDbEntity
8
INTERIOR_PROFILES
100
AcDbPolyline
90
4
70
1
43
0.0
10
323.16000000000003
20
102.30000000000415
10
353.16000000000003
20
102.30000000000416
42
0.99999999999999989
10
353.16000000000003
20
106.30000000000415
10
323.16000000000003
20
106.30000000000416
42
0.99999999999999989
0
LWPOLYLINE
5
125
100
AcDbEntity
8
INTERIOR_PROFILES
100
AcDbPolyline
90
4
70
1
43
0.0
10
323.16000000000003
20
62.300000000004161
10
353.16000000000003
20
62.300000000004161
42
0.99999999999999989
10
353.16000000000003
20
66.300000000004147
10
323.16000000000003
20
66.300000000004147
42
0.99999999999999989
0
LWPOLYLINE
5
126
100
AcDbEntity
8
INTERIOR_PROFILES
100
AcDbPolyline
90
4
70
1
43
0.0
10
323.16000000000003
20
52.300000000004161
10
353.16000000000003
20
52.300000000004161
42
0.99999999999999989
10
353.16000000000003
20
56.300000000004147
10
323.16000000000003
20
56.300000000004147
42
0.99999999999999989
0
LWPOLYLINE
5
127
100
AcDbEntity
8
INTERIOR_PROFILES
100
AcDbPolyline
90
4
70
1
43
0.0
10
323.16000000000003
20
92.300000000004147
10
353.16000000000003
20
92.300000000004161
42
0.99999999999999989
10
353.16000000000003
20
96.300000000004147
10
323.16000000000003
20
96.300000000004161
42
0.99999999999999989
0
LWPOLYLINE
5
128
100
AcDbEntity
8
INTERIOR_PROFILES
100
AcDbPolyline
90
4
70
1
43
0.0
10
323.16000000000003
20
132.30000000000413
10
353.16000000000003
20
132.30000000000416
42
0.99999999999999989
10
353.16000000000003
20
136.30000000000416
10
323.16000000000003
20
136.30000000000416
42
0.99999999999999989
0
LWPOLYLINE
5
129
100
AcDbEntity
8
INTERIOR_PROFILES
100
AcDbPolyline
90
4
70
1
43
0.0
10
323.16000000000003
20
172.30000000000416
10
353.16000000000003
20
172.30000000000416
42
0.99999999999999989
10
353.16000000000003
20
176.30000000000416
10
323.16000000000003
20
176.30000000000416
42
0.99999999999999989
0
LWPOLYLINE
5
130
100
AcDbEntity
8
INTERIOR_PROFILES
100
AcDbPolyline
90
4
70
1
43
0.0
10
323.16000000000003
20
212.30000000000416
10
353.16000000000003
20
212.30000000000416
42
0.99999999999999989
10
353.16000000000003
20
216.30000000000416
10
323.16000000000003
20
216.30000000000416
42
0.99999999999999989
0
LWPOLYLINE
5
131
100
AcDbEntity
8
INTERIOR_PROFILES
100
AcDbPolyline
90
4
70
1
43
0.0
10
323.16000000000003
20
232.30000000000416
10
353.16000000000003
20
232.30000000000416
42
0.99999999999999989
10
353.16000000000003
20
236.30000000000416
10
323.16000000000003
20
236.30000000000416
42
0.99999999999999989
0
LWPOLYLINE
5
132
100
AcDbEntity
8
INTERIOR_PROFILES
100
AcDbPolyline
90
4
70
1
43
0.0
10
323.16000000000003
20
192.30000000000416
10
353.16000000000003
20
192.30000000000416
42
0.99999999999999989
10
353.16000000000003
20
196.30000000000416
10
323.16000000000003
20
196.30000000000416
42
0.99999999999999989
0
LWPOLYLINE
5
133
100
AcDbEntity
8
INTERIOR_PROFILES
100
AcDbPolyline
90
4
70
1
43
0.0
10
323.16000000000003
20
152.30000000000413
10
353.16000000000003
20
152.30000000000416
42
0.99999999999999989
10
353.16000000000003
20
156.30000000000416
10
323.16000000000003
20
156.30000000000416
42
0.99999999999999989
0
LWPOLYLINE
5
134
100
AcDbEntity
8
INTERIOR_PROFILES
100
AcDbPolyline
90
4
70
1
43
0.0
10
323.16000000000003
20
112.30000000000415
10
353.16000000000003
20
112.30000000000416
42
0.99999999999999989
10
353.16000000000003
20
116.30000000000415
10
323.16000000000003
20
116.30000000000416
42
0.99999999999999989
0
LWPOLYLINE
5
135
100
AcDbEntity
8
INTERIOR_PROFILES
100
AcDbPolyline
90
4
70
1
43
0.0
10
323.16000000000003
20
72.300000000004147
10
353.16000000000003
20
72.300000000004161
42
0.99999999999999989
10
353.16000000000003
20
76.300000000004147
10
323.16000000000003
20
76.300000000004161
42
0.99999999999999989
0
LWPOLYLINE
5
136
100
AcDbEntity
8
INTERIOR_PROFILES
100
AcDbPolyline
90
4
70
1
43
0.0
10
323.16000000000003
20
42.300000000004161
10
353.16000000000003
20
42.300000000004161
42
0.99999999999999989
10
353.16000000000003
20
46.300000000004147
10
323.16000000000003
20
46.300000000004147
42
0.99999999999999989
0
LWPOLYLINE
5
137
100
AcDbEntity
8
INTERIOR_PROFILES
100
AcDbPolyline
90
4
70
1
43
0.0
10
323.16000000000003
20
82.300000000004147
10
353.16000000000003
20
82.300000000004161
42
0.99999999999999989
10
353.16000000000003
20
86.300000000004147
10
323.16000000000003
20
86.300000000004161
42
0.99999999999999989
0
LWPOLYLINE
5
138
100
AcDbEntity
8
INTERIOR_PROFILES
100
AcDbPolyline
90
4
70
1
43
0.0
10
323.16000000000003
20
122.30000000000415
10
353.16000000000003
20
122.30000000000416
42
0.99999999999999989
10
353.16000000000003
20
126.30000000000415
10
323.16000000000003
20
126.30000000000416
42
0.99999999999999989
0
LWPOLYLINE
5
139
100
AcDbEntity
8
INTERIOR_PROFILES
100
AcDbPolyline
90
4
70
1
43
0.0
10
323.16000000000003
20
162.30000000000416
10
353.16000000000003
20
162.30000000000416
42
0.99999999999999989
10
353.16000000000003
20
166.30000000000416
10
323.16000000000003
20
166.30000000000416
42
0.99999999999999989
0
LWPOLYLINE
5
140
100
AcDbEntity
8
INTERIOR_PROFILES
100
AcDbPolyline
90
4
70
1
43
0.0
10
323.16000000000003
20
202.30000000000416
10
353.16000000000003
20
202.30000000000416
42
0.99999999999999989
10
353.16000000000003
20
206.30000000000416
10
323.16000000000003
20
206.30000000000416
42
0.99999999999999989
0
LWPOLYLINE
5
141
100
AcDbEntity
8
INTERIOR_PROFILES
100
AcDbPolyline
90
4
70
1
43
0.0
10
323.16000000000003
20
242.30000000000416
10
353.16000000000003
20
242.30000000000416
42
0.99999999999999989
10
353.16000000000003
20
246.30000000000416
10
323.16000000000003
20
246.30000000000416
42
0.99999999999999989
0
CIRCLE
5
142
100
AcDbEntity
8
INTERIOR_PROFILES
100
AcDbCircle
10
-88.579674911779279
20
214.29982497065379
30
0
40
1.7500000000000071
210
0
220
0
230
-1
0
CIRCLE
5
143
100
AcDbEntity
8
INTERIOR_PROFILES
100
AcDbCircle
10
-288.57967491177931
20
214.29982497065373
30
0
40
1.7500000000000071
210
0
220
0
230
-1
0
CIRCLE
5
144
100
AcDbEntity
8
INTERIOR_PROFILES
100
AcDbCircle
10
-88.579674911779236
20
74.299824970653788
30
0
40
1.7499999999999982
210
0
220
0
230
-1
0
CIRCLE
5
145
100
AcDbEntity
8
INTERIOR_PROFILES
100
AcDbCircle
10
-288.57967491177925
20
74.299824970653731
30
0
40
1.7499999999999982
210
0
220
0
230
-1
0
CIRCLE
5
146
100
AcDbEntity
8
INTERIOR_PROFILES
100
AcDbCircle
10
-138.57999999999373
20
194.30000000000416
30
0
40
2.9499999999999815
210
0
220
0
230
-1
0
CIRCLE
5
147
100
AcDbEntity
8
INTERIOR_PROFILES
100
AcDbCircle
10
-138.57999999999373
20
94.300000000004161
30
0
40
2.9499999999999993
210
0
220
0
230
-1
0
CIRCLE
5
148
100
AcDbEntity
8
INTERIOR_PROFILES
100
AcDbCircle
10
-238.57999999999373
20
194.30000000000416
30
0
40
2.9499999999999815
210
0
220
0
230
-1
0
CIRCLE
5
149
100
AcDbEntity
8
INTERIOR_PROFILES
100
AcDbCircle
10
-238.57999999999373
20
94.300000000004161
30
0
40
2.9499999999999993
210
0
220
0
230
-1
0
ENDSEC
0
SECTION
2
OBJECTS
0
DICTIONARY
5
C
100
AcDbDictionary
3
ACAD_GROUP
350
D
3
ACAD_MLINESTYLE
350
17
0
DICTIONARY
5
D
100
AcDbDictionary
0
DICTIONARY
5
1A
330
C
100
AcDbDictionary
0
DICTIONARY
5
17
100
AcDbDictionary
0
ENDSEC
0
EOF
